C:\GBW_MyPrograms\KinderuniversiteitApp\Resultaten\Ellis\Jullie\Jullie_v1.mot
version=1
nRows=19
nColumns=29
inDegrees=yes
endheader
                time	         pelvis_tilt	           pelvis_tx	           pelvis_ty	       hip_flexion_l	       hip_flexion_r	        knee_angle_l	        knee_angle_r	       ankle_angle_l	       ankle_angle_r	    lumbar_extension	hamstrings_r/activation	bifemsh_r/activation	glut_max_r/activation	iliopsoas_r/activation	rect_fem_r/activation	  vasti_r/activation	gastroc_r/activation	 soleus_r/activation	tib_ant_r/activation	hamstrings_l/activation	bifemsh_l/activation	glut_max_l/activation	iliopsoas_l/activation	rect_fem_l/activation	  vasti_l/activation	gastroc_l/activation	 soleus_l/activation	tib_ant_l/activation	
          1.48270909	         -7.91913809	          1.83841062	          0.89328811	         30.70788849	         -8.91303279	         -8.52368879	         -9.86667177	          9.05933842	          6.28488863	          1.59363386	          0.05000019	          0.15862386	          0.05000016	          0.59060516	          0.05000023	          0.05000004	          0.18275304	          0.31438696	          0.05000002	          0.23694949	          0.05000052	          0.05168436	          0.05000025	          0.07608916	          0.06793676	          0.05000055	          0.05430790	          0.22302147	
          1.49259381	         -7.93918142	          1.85364687	          0.89278939	         29.83129802	         -8.37746970	         -8.03216444	        -12.54491211	          8.87950109	          5.57378984	          1.95257248	          0.05000008	          0.13618760	          0.05000016	          0.52091609	          0.05000028	          0.05000003	          0.15690385	          0.26991904	          0.05000002	          0.21562293	          0.05000038	          0.06044347	          0.05000024	          0.06532690	          0.08853767	          0.05000010	          0.05000009	          0.24139258	
          1.50247854	         -7.95474218	          1.86906685	          0.89221790	         28.91088548	         -7.64315695	         -8.02357270	        -15.57752166	          8.63396375	          4.66048527	          2.33152000	          0.05641232	          0.11692480	          0.05000021	          0.44723602	          0.05000008	          0.05000003	          0.13471085	          0.23174080	          0.05000001	          0.19040877	          0.05080221	          0.10678456	          0.05000006	          0.05608688	          0.07700340	          0.06130757	          0.05823753	          0.23590857	
          1.51236327	         -7.96881629	          1.88443947	          0.89170324	         27.97525439	         -6.68556756	         -8.12940559	        -18.94130231	          8.34389206	          3.40676956	          2.70468660	          0.05000019	          0.10038659	          0.06783348	          0.38397750	          0.05000014	          0.05000004	          0.11565691	          0.19896262	          0.05000008	          0.16347676	          0.05824344	          0.14165072	          0.05000006	          0.05000008	          0.11238850	          0.05263606	          0.05000025	          0.28452993	
          1.52224800	         -7.98577728	          1.89943758	          0.89148901	         27.12351874	         -5.48899189	         -8.30963699	        -22.58277821	          7.96264533	          1.76822276	          3.03556835	          0.05000029	          0.08618762	          0.05823895	          0.32966647	          0.05000043	          0.05000009	          0.09929802	          0.17082069	          0.25410960	          0.14036994	          0.05000556	          0.19041244	          0.05000004	          0.05000010	          0.18635897	          0.05000013	          0.05000015	          0.30550055	
          1.53213272	         -8.00820747	          1.91381412	          0.89163926	         26.38894849	         -4.10309962	         -8.61556725	        -26.35849556	          7.62820479	          0.36542110	          3.29603058	          0.05000018	          0.07399706	          0.05000214	          0.28303737	          0.13481742	          0.05000003	          0.08525299	          0.14665925	          0.23245543	          0.12051559	          0.05000038	          0.20815190	          0.05000004	          0.05000016	          0.23401953	          0.05000008	          0.05000007	          0.32792072	
          1.54201745	         -8.03769903	          1.92754131	          0.89220646	         25.73245468	         -2.64882460	         -8.97860957	        -29.91033959	          7.38376422	          0.07265437	          3.48511737	          0.05000038	          0.08550631	          0.05000002	          0.24300365	          0.19962553	          0.05000001	          0.07319458	          0.12591528	          0.29628555	          0.10914880	          0.05000093	          0.19834621	          0.05000008	          0.05000021	          0.25671521	          0.05000018	          0.05000023	          0.32776528	
          1.55190218	         -8.07244269	          1.94073747	          0.89326434	         25.09442818	         -1.19928408	         -9.31324464	        -33.03250522	          7.25236115	          0.20562483	          3.61667731	          0.05233961	          0.12961899	          0.05000004	          0.20863247	          0.26566241	          0.05000001	          0.06536311	          0.10810542	          0.29226943	          0.10025558	          0.05000119	          0.19098389	          0.05000008	          0.05000020	          0.25970665	          0.05000023	          0.05000030	          0.32326310	
          1.56178690	         -8.11098377	          1.95352920	          0.89476365	         24.42669334	          0.20718641	         -9.54767052	        -35.64665090	          7.21103426	          0.53296820	          3.70553468	          0.06538807	          0.17614100	          0.05000003	          0.17913541	          0.31408958	          0.05000001	          0.06904479	          0.09281463	          0.28318439	          0.09584252	          0.05000149	          0.17786206	          0.05000008	          0.05000020	          0.24920153	          0.05000035	          0.05000051	          0.31264272	
          1.57167163	         -8.15126606	          1.96601490	          0.89659867	         23.70460933	          1.55953931	         -9.65043113	        -37.76093799	          7.23254624	          0.98106418	          3.76178585	          0.07566086	          0.22632433	          0.05000003	          0.16104309	          0.34512495	          0.05000001	          0.06915154	          0.07968663	          0.26798773	          0.09507138	          0.05000182	          0.16476646	          0.05000008	          0.05000018	          0.23254931	          0.05000033	          0.05000046	          0.30043751	
          1.58155636	         -8.19138426	          1.97825789	          0.89864959	         22.92368138	          2.86656993	         -9.62132218	        -39.43608191	          7.28625358	          1.50594868	          3.79099324	          0.07757762	          0.27836459	          0.05000004	          0.14858532	          0.36119015	          0.05000002	          0.06676058	          0.06841550	          0.25145292	          0.09472212	          0.05000136	          0.15442693	          0.05000007	          0.05000018	          0.21474274	          0.05000029	          0.05000044	          0.28809577	
          1.59144109	         -8.22979089	          1.99029659	          0.90080470	         22.08901757	          4.14567888	         -9.47497608	        -40.75176264	          7.35231175	          2.08242981	          3.79586064	          0.06663406	          0.33266518	          0.05000004	          0.13876005	          0.36395120	          0.05000002	          0.06388591	          0.05873859	          0.23426040	          0.09522380	          0.05000106	          0.14857717	          0.05000006	          0.05000017	          0.19833187	          0.05000022	          0.05000036	          0.27701913	
          1.60132581	         -8.26501884	          2.00215544	          0.90297052	         21.20730004	          5.41529458	         -9.22767927	        -41.78457050	          7.41772739	          2.68560864	          3.77738985	          0.05720969	          0.38808063	          0.05000005	          0.13223812	          0.35790047	          0.05000003	          0.06207022	          0.05043044	          0.21859448	          0.09429553	          0.05000080	          0.14319665	          0.05000006	          0.05000018	          0.18443670	          0.05000018	          0.05000034	          0.26743384	
          1.61121054	         -8.29557182	          2.01384867	          0.90507203	         20.28553332	          6.69456143	         -8.89581141	        -42.60969357	          7.47611731	          3.27842935	          3.73525754	          0.05000056	          0.44179246	          0.05000005	          0.12784179	          0.34567595	          0.05000003	          0.05329095	          0.05000004	          0.21128717	          0.09192724	          0.05000064	          0.13716480	          0.05000005	          0.05000020	          0.17336775	          0.05000015	          0.05000030	          0.25944427	
          1.62109527	         -8.32018516	          2.02538521	          0.90705016	         19.33062473	          8.00103655	         -8.49490167	        -43.29765735	          7.52493442	          3.82508141	          3.66879963	          0.05000027	          0.48901508	          0.05000004	          0.12577921	          0.33015699	          0.05000004	          0.05000033	          0.05000006	          0.20780523	          0.08783299	          0.05000053	          0.12780656	          0.05000005	          0.05000025	          0.16471274	          0.05000013	          0.05000029	          0.25259977	
          1.63098000	         -8.33786435	          2.03677036	          0.90885831	         18.35020320	          9.35058125	         -8.04116531	        -43.91738941	          7.56382845	          4.32926933	          3.57725529	          0.05000017	          0.52462622	          0.05000004	          0.12437217	          0.31309894	          0.05000004	          0.05000025	          0.05000005	          0.20831641	          0.08268102	          0.05000047	          0.11881190	          0.05000006	          0.05000033	          0.15794034	          0.05000012	          0.05000027	          0.24675583	
          1.64086472	         -8.34795806	          2.04801070	          0.91046247	         17.35060536	         10.75488581	         -7.54824823	        -44.52627810	          7.59422864	          4.80436900	          3.46048466	          0.05000012	          0.54477690	          0.05000004	          0.12357091	          0.29619549	          0.05000004	          0.05000031	          0.05000005	          0.20929720	          0.07680753	          0.05000044	          0.10982367	          0.05000006	          0.05000045	          0.15220148	          0.05000011	          0.05000025	          0.24136662	
          1.65074945	         -8.35013760	          2.05911781	          0.91184169	         16.33654287	         12.21787592	         -7.02727504	        -45.15903925	          7.61996905	          5.26723959	          3.31940008	          0.05000009	          0.54780270	          0.05000003	          0.12336646	          0.28034642	          0.05000004	          0.05000033	          0.05000005	          0.21098138	          0.07049974	          0.05000043	          0.10104142	          0.05000006	          0.05000067	          0.14669632	          0.05000010	          0.05000021	          0.23570261	
          1.66063418	         -8.34436144	          2.07010890	          0.91298763	         15.31152757	         13.73527287	         -6.48769155	        -45.82562086	          7.64751798	          5.72219617	          3.15598823	          0.05000007	          0.53295952	          0.05000003	          0.12380486	          0.26591323	          0.05000004	          0.05000036	          0.05000005	          0.21272788	          0.06414020	          0.05000043	          0.09237390	          0.05000007	          0.05000111	          0.14098627	          0.05000009	          0.05000019	          0.22851378	
